<mxfile host="app.diagrams.net" modified="2023-09-29T18:17:18.269Z" agent="Mozilla/5.0 (Windows NT 10.0; Win64; x64; rv:102.0) Gecko/20100101 Firefox/102.0" version="21.8.2" etag="IR_MJIxJqaH-41J-1A41" type="github">
  <diagram name="Page-1" id="kzTbaX_YZyRQh6eQkyUG">
    <mxGraphModel>
      <root>
        <mxCell id="0" />
        <mxCell id="1" parent="0" />
      </root>
    </mxGraphModel>
  </diagram>
</mxfile>
